<?xml version="1.0" standalone="no"?>
<!DOCTYPE svg PUBLIC "-//W3C//DTD SVG 20010904//EN"
 "http://www.w3.org/TR/2001/REC-SVG-20010904/DTD/svg10.dtd">
<svg version="1.0" xmlns="http://www.w3.org/2000/svg"
 width="192.000000pt" height="192.000000pt" viewBox="0 0 192.000000 192.000000"
 preserveAspectRatio="xMidYMid meet">
<metadata>
Created by potrace 1.11, written by Peter Selinger 2001-2013
</metadata>
<g transform="translate(0.000000,192.000000) scale(0.100000,-0.100000)"
fill="#000000" stroke="none">
<path d="M0 1530 c0 -253 4 -390 10 -390 6 0 10 9 10 19 0 13 8 21 23 23 14 2
23 11 25 26 3 17 10 22 33 22 16 0 29 5 29 10 0 6 -7 10 -15 10 -18 0 -20 26
-3 37 20 12 48 14 48 3 0 -6 15 -10 33 -10 28 0 37 5 50 33 9 17 18 40 21 50
8 25 26 12 26 -19 0 -31 20 -30 43 1 13 18 15 30 9 42 -8 13 -3 20 26 36 28
15 37 16 44 5 7 -9 8 -8 4 5 -4 13 0 20 14 24 11 3 20 12 20 19 0 8 7 14 15
14 8 0 15 -5 15 -12 0 -6 9 -3 20 7 17 15 24 16 42 6 13 -6 15 -9 6 -7 -10 3
-18 1 -18 -4 0 -20 49 -10 55 11 6 17 9 19 16 8 7 -11 9 -11 9 -1 0 7 7 20 15
28 9 10 15 11 15 4 0 -6 6 -10 13 -7 6 2 11 12 9 22 -2 10 1 14 7 10 6 -3 11
-1 11 5 0 6 5 8 10 5 6 -3 10 -1 10 5 0 6 8 10 18 8 9 -1 18 1 19 6 1 5 11 14
23 20 12 6 29 24 38 40 16 27 44 61 94 114 23 24 62 29 75 9 4 -6 28 -19 53
-28 37 -13 46 -21 48 -43 3 -20 8 -26 18 -22 9 3 12 1 9 -4 -3 -6 -2 -10 2
-10 9 0 27 -58 39 -125 6 -36 8 -38 14 -15 l6 25 8 -22 c4 -13 4 -28 0 -34 -4
-8 -3 -9 5 -5 7 5 13 -3 17 -23 4 -17 10 -31 15 -31 5 0 9 -5 9 -11 0 -8 -5
-7 -15 1 -23 19 -27 7 -10 -26 8 -16 15 -33 15 -38 0 -5 6 -17 13 -25 16 -18
39 -84 57 -156 7 -27 18 -64 26 -82 8 -17 14 -42 14 -56 0 -13 6 -30 14 -36 7
-6 16 -34 20 -61 4 -28 10 -50 15 -50 4 0 8 -6 9 -12 6 -60 8 -89 5 -71 -5 28
-33 19 -34 -11 0 -21 -1 -21 -10 -1 -7 16 -8 13 -4 -12 2 -18 1 -33 -4 -33
-14 0 -19 -48 -7 -60 8 -9 6 -11 -9 -8 -11 2 -21 9 -21 16 -1 6 -2 17 -3 22 0
6 -8 10 -16 10 -18 0 -20 41 -3 58 9 9 8 12 -5 12 -13 0 -16 6 -12 23 3 12 -1
42 -9 67 -14 43 -15 40 -9 -77 4 -91 3 -126 -7 -138 -7 -8 -9 -15 -4 -15 5 0
4 -4 -3 -8 -7 -4 -14 -25 -17 -46 -3 -21 -10 -44 -15 -49 -8 -8 -10 13 -8 67
1 51 6 79 15 85 11 7 11 9 -2 14 -9 4 -16 10 -15 14 3 20 -2 34 -11 28 -6 -4
-10 8 -11 27 l-1 33 -8 -33 c-8 -36 -3 -72 11 -72 5 0 9 -11 9 -25 0 -14 -5
-25 -11 -25 -5 0 -7 -5 -3 -11 4 -7 1 -10 -7 -7 -19 6 -24 39 -7 49 10 7 10 9
0 9 -7 0 -15 -7 -18 -15 -11 -28 -23 -15 -19 22 2 21 0 31 -5 24 -6 -11 -9
-11 -13 0 -4 12 -7 11 -16 -1 -6 -8 -9 -21 -6 -28 3 -7 0 -23 -6 -34 -8 -15
-8 -19 0 -14 6 4 11 0 11 -9 0 -9 -4 -13 -10 -10 -5 3 -10 -2 -10 -12 0 -26
-47 -74 -65 -67 -8 4 -15 2 -15 -4 0 -6 6 -12 13 -15 8 -3 6 -9 -8 -20 -11 -8
-23 -13 -27 -11 -11 7 -10 52 2 59 5 3 7 12 4 20 -5 12 -9 12 -30 -2 -23 -15
-24 -14 -25 8 l-1 24 -7 -25 -8 -25 -5 25 c-4 19 -6 16 -7 -13 -1 -43 -22 -70
-46 -61 -11 5 -15 14 -11 30 3 12 2 24 -3 26 -4 2 -12 14 -16 27 -5 15 -4 21
3 17 7 -4 9 6 5 31 -7 47 -11 51 -20 27 -4 -10 -13 -24 -21 -30 -11 -8 -13
-22 -10 -45 4 -22 1 -42 -8 -54 -8 -10 -14 -15 -14 -11 0 4 -14 -1 -30 -11
-29 -17 -41 -43 -20 -43 6 0 10 5 10 10 0 6 7 10 17 10 14 0 14 -2 -2 -20 -16
-17 -16 -20 -3 -15 9 4 19 13 22 21 3 8 10 14 16 14 13 0 13 -37 0 -45 -12 -7
-4 -25 11 -25 5 0 9 7 9 15 0 8 7 15 15 15 8 0 15 6 15 14 0 7 7 19 15 26 12
10 15 9 15 -6 0 -16 2 -16 10 -4 5 8 12 11 17 7 9 -10 -16 -27 -31 -21 -6 2
-16 -9 -23 -25 -9 -25 -8 -30 7 -34 10 -3 21 -18 25 -37 4 -18 28 -53 54 -81
26 -27 45 -53 42 -57 -10 -14 -101 -40 -107 -31 -3 5 -1 9 4 9 5 0 12 9 15 20
3 13 0 20 -9 20 -8 0 -14 -8 -14 -17 -1 -17 -1 -17 -11 -1 -14 25 -54 20 -54
-6 -1 -12 -5 -32 -9 -45 -7 -20 -5 -23 8 -18 19 8 21 0 3 -17 -15 -15 -37 -10
-37 10 0 8 -6 11 -15 8 -8 -4 -15 -1 -15 5 0 6 -7 11 -15 11 -18 0 -20 16 -2
23 10 4 10 6 0 6 -16 1 -17 31 -1 31 6 0 9 3 6 6 -4 3 -15 1 -27 -5 -13 -7
-22 -8 -26 -1 -3 5 -17 -2 -30 -18 -24 -27 -24 -27 -25 -4 0 19 -4 22 -20 17
-11 -3 -20 -2 -20 3 0 15 -91 64 -107 58 -8 -3 -16 1 -20 10 -3 8 -12 13 -19
10 -8 -3 -14 -1 -14 5 0 5 -6 9 -12 8 -7 -1 -26 3 -41 9 -40 17 -47 15 -47
-12 0 -19 -9 -29 -40 -42 -32 -14 -42 -25 -50 -54 -5 -19 -13 -51 -19 -70 -9
-34 -9 -33 -5 11 6 49 -8 66 -37 48 -8 -5 -21 -8 -29 -8 -8 0 -4 6 10 12 34
16 53 35 45 46 -3 5 7 11 22 13 21 2 28 8 28 25 0 11 3 25 8 29 12 13 8 22
-15 30 -21 6 -21 7 -3 20 18 13 17 14 -11 15 -36 2 -33 2 -69 -6 -28 -7 -29
-6 -11 7 16 13 17 16 3 21 -8 3 -29 1 -46 -6 l-31 -11 1 -213 1 -213 144 0
c100 0 144 3 144 11 0 8 19 9 63 4 34 -4 183 -9 331 -11 l268 -4 112 36 c61
20 114 39 119 41 17 10 5 -17 -18 -38 -13 -13 -25 -27 -25 -31 0 -5 176 -8
390 -8 l390 0 0 68 c0 37 -4 72 -9 77 -5 6 -14 28 -21 50 -7 22 -27 70 -45
106 -18 36 -40 90 -50 120 -10 30 -39 100 -66 155 -50 104 -138 335 -140 363
0 9 -22 61 -50 116 -27 55 -46 89 -43 75 15 -67 59 -204 90 -278 40 -95 52
-142 35 -142 -6 0 -11 7 -11 16 0 26 -41 112 -56 118 -8 3 -14 1 -14 -4 0 -6
4 -10 9 -10 8 0 51 -111 51 -130 0 -4 -6 -7 -14 -7 -7 0 -11 7 -9 16 2 9 -5
37 -17 61 -11 26 -18 34 -16 20 3 -14 3 -36 -1 -48 l-6 -23 -23 22 c-23 21
-24 21 -24 3 -1 -10 -8 1 -16 26 -8 25 -19 54 -24 65 -18 43 -100 335 -100
358 0 15 -12 21 -46 20 -7 0 -15 18 -18 40 -21 127 -80 289 -100 270 -3 -3 -6
-1 -6 5 0 8 11 10 31 7 22 -4 30 -2 26 7 -2 7 -11 12 -18 10 -10 -2 -11 0 -3
7 7 8 19 8 42 0 18 -6 45 -9 59 -6 18 3 31 0 39 -11 10 -14 15 -15 25 -4 15
14 49 16 49 2 0 -5 21 -7 50 -3 42 5 50 3 45 -9 -7 -17 30 -28 91 -28 19 0 34
-4 34 -10 0 -5 6 -10 14 -10 7 0 19 -7 26 -15 7 -8 16 -12 22 -9 5 3 14 1 21
-4 7 -6 25 -12 42 -14 20 -2 31 -9 33 -22 6 -29 27 -46 59 -46 16 0 34 -5 41
-12 9 -9 12 52 12 275 l0 287 -960 0 -960 0 0 -390z m1560 -844 c0 -3 -4 -8
-10 -11 -5 -3 -10 -1 -10 4 0 6 5 11 10 11 6 0 10 -2 10 -4z m30 -70 c0 -3 -4
-8 -10 -11 -5 -3 -10 -1 -10 4 0 6 5 11 10 11 6 0 10 -2 10 -4z m25 -46 c3 -5
1 -10 -4 -10 -6 0 -11 5 -11 10 0 6 2 10 4 10 3 0 8 -4 11 -10z m-725 -30 c0
-11 -4 -20 -10 -20 -5 0 -10 9 -10 20 0 11 5 20 10 20 6 0 10 -9 10 -20z m440
-5 c0 -3 -9 -14 -20 -25 -22 -22 -25 -19 -10 11 10 17 30 27 30 14z m-370 -51
c0 -4 -56 -34 -65 -34 -16 0 -2 32 18 39 20 8 47 5 47 -5z m615 -4 c-3 -5 1
-10 9 -10 9 0 16 -5 16 -11 0 -8 14 -10 40 -6 23 3 40 1 40 -5 0 -5 5 -6 10
-3 6 3 10 1 10 -5 0 -6 -8 -14 -17 -17 -10 -4 -23 -13 -29 -21 -9 -13 -12 -13
-17 2 -4 10 -18 16 -38 16 -22 0 -30 4 -26 14 3 7 1 18 -5 24 -9 9 -4 32 8 32
3 0 2 -4 -1 -10z m-1340 -190 c3 -5 -1 -10 -10 -10 -9 0 -13 5 -10 10 3 6 8
10 10 10 2 0 7 -4 10 -10z m1079 -5 c9 -24 -14 -53 -41 -51 -28 1 -27 0 -6 37
19 32 38 37 47 14z m-1000 -29 c-3 -8 -1 -17 5 -21 6 -3 11 2 11 12 0 15 2 16
10 3 8 -13 11 -12 25 5 15 19 17 18 80 -49 36 -37 65 -72 65 -77 0 -5 -13 -9
-30 -9 -20 0 -30 5 -30 15 0 8 -4 15 -8 15 -12 0 -49 -45 -55 -67 -4 -15 -5
-15 -6 3 0 12 -8 27 -16 34 -8 7 -15 18 -15 24 0 7 -14 34 -31 61 -24 37 -28
50 -17 56 17 12 18 11 12 -5z m1126 -32 c0 -2 -7 -4 -15 -4 -8 0 -15 4 -15 10
0 5 7 7 15 4 8 -4 15 -8 15 -10z m104 -9 c-5 -11 1 -15 22 -15 28 -1 28 -1 10
-15 -25 -19 -57 -19 -82 0 -18 14 -18 14 4 15 12 0 25 7 28 15 4 8 10 15 15
15 4 0 6 -7 3 -15z m-735 -9 c15 -18 2 -27 -27 -19 -22 5 -27 14 -15 26 11 11
30 8 42 -7z m171 -16 c0 -5 -2 -10 -4 -10 -3 0 -8 5 -11 10 -3 6 -1 10 4 10 6
0 11 -4 11 -10z m40 -10 c0 -5 -7 -7 -15 -4 -8 4 -12 10 -9 15 6 11 24 2 24
-11z m-686 -27 c7 -17 -9 -33 -31 -33 -7 0 -13 5 -13 11 0 8 -11 9 -32 5 -31
-6 -32 -5 -13 8 11 8 32 16 45 19 14 2 28 5 31 6 4 0 10 -7 13 -16z m325 3 c9
-11 6 -12 -14 -8 -14 2 -22 8 -19 13 8 13 20 11 33 -5z m45 -39 c-21 -12 -29
-2 -13 16 10 11 16 12 21 4 4 -7 0 -16 -8 -20z m592 -2 c-9 -9 -16 -21 -16
-26 0 -5 -17 -9 -37 -8 l-38 0 41 19 c23 10 45 23 49 30 4 6 9 9 12 6 3 -3 -2
-12 -11 -21z m-1181 -16 c25 -6 49 -17 54 -23 14 -17 -103 -13 -124 4 -36 30
-7 38 70 19z m574 -3 c8 -9 1 -17 -26 -30 -27 -13 -38 -14 -43 -5 -4 6 -12 9
-18 5 -5 -3 -17 5 -25 18 l-16 24 59 0 c35 0 63 -5 69 -12z m-374 -46 c-3 -5
-11 -10 -16 -10 -6 0 -7 5 -4 10 3 6 11 10 16 10 6 0 7 -4 4 -10z m325 -20 c0
-5 -2 -10 -4 -10 -3 0 -8 5 -11 10 -3 6 -1 10 4 10 6 0 11 -4 11 -10z"/>
<path d="M1280 260 c0 -5 4 -10 9 -10 6 0 13 5 16 10 3 6 -1 10 -9 10 -9 0
-16 -4 -16 -10z"/>
<path d="M400 180 c0 -5 7 -10 15 -10 8 0 15 5 15 10 0 6 -7 10 -15 10 -8 0
-15 -4 -15 -10z"/>
<path d="M1502 1193 c19 -75 38 -116 38 -80 0 39 -37 157 -50 157 -4 0 1 -35
12 -77z"/>
<path d="M1221 1084 c0 -11 3 -14 6 -6 3 7 2 16 -1 19 -3 4 -6 -2 -5 -13z"/>
<path d="M1321 884 c0 -11 3 -14 6 -6 3 7 2 16 -1 19 -3 4 -6 -2 -5 -13z"/>
<path d="M1260 861 c0 -5 7 -11 15 -15 9 -3 15 0 15 9 0 8 -7 15 -15 15 -8 0
-15 -4 -15 -9z"/>
<path d="M1265 820 c-3 -5 -1 -10 4 -10 6 0 11 5 11 10 0 6 -2 10 -4 10 -3 0
-8 -4 -11 -10z"/>
<path d="M345 800 c-3 -5 -1 -10 4 -10 6 0 11 5 11 10 0 6 -2 10 -4 10 -3 0
-8 -4 -11 -10z"/>
<path d="M405 792 c3 -3 -6 -24 -19 -46 -13 -23 -25 -45 -26 -51 -2 -5 -10
-25 -18 -42 -9 -18 -13 -35 -10 -38 3 -3 30 -10 59 -15 30 -5 71 -18 93 -29
30 -16 42 -18 57 -8 13 8 15 13 6 19 -7 4 -16 8 -22 8 -5 0 -3 -5 5 -10 9 -6
10 -10 3 -10 -23 0 -25 22 -4 44 16 17 20 32 17 65 -3 34 -1 41 11 36 11 -4
13 -1 9 11 -5 13 -2 15 14 11 11 -3 20 -1 20 5 0 6 -13 8 -32 4 -18 -4 -43 -8
-55 -10 -13 -1 -32 -13 -43 -26 -11 -13 -20 -18 -20 -12 0 7 -5 12 -11 12 -6
0 -8 -7 -4 -17 5 -14 3 -15 -5 -7 -9 9 -8 17 1 32 18 29 0 42 -18 15 -9 -13
-20 -23 -26 -23 -6 0 0 11 13 25 13 14 29 24 36 21 13 -5 34 12 34 28 0 6 -16
11 -35 12 -19 0 -33 -2 -30 -4z"/>
<path d="M311 759 c-16 -13 -33 -18 -48 -14 -16 4 -23 1 -23 -9 0 -7 -16 -40
-35 -72 -19 -32 -35 -61 -35 -64 0 -4 17 -7 37 -8 28 -1 44 5 65 25 15 15 28
32 28 39 0 6 7 15 16 18 10 4 13 13 9 26 -3 11 -3 25 1 32 6 10 14 49 10 48
-1 -1 -12 -10 -25 -21z m-11 -33 c0 -3 -4 -8 -10 -11 -5 -3 -10 -1 -10 4 0 6
5 11 10 11 6 0 10 -2 10 -4z m15 -36 c-3 -5 -12 -10 -18 -10 -7 0 -6 4 3 10
19 12 23 12 15 0z"/>
<path d="M490 765 c-7 -9 -8 -15 -2 -15 5 0 12 7 16 15 3 8 4 15 2 15 -2 0 -9
-7 -16 -15z"/>
<path d="M608 719 c-20 -11 -25 -41 -5 -33 15 5 41 44 30 44 -5 0 -16 -5 -25
-11z"/>
<path d="M567 673 c-4 -3 -7 -11 -7 -17 0 -6 5 -5 12 2 6 6 9 14 7 17 -3 3 -9
2 -12 -2z"/>
<path d="M635 670 c-9 -14 3 -30 22 -30 9 0 13 3 10 7 -4 3 -2 12 4 20 9 10 7
13 -9 13 -12 0 -24 -4 -27 -10z"/>
<path d="M628 598 c-8 -7 -32 -23 -53 -34 -22 -12 -41 -26 -42 -31 -2 -5 16
-15 39 -22 41 -13 43 -12 65 14 31 36 31 60 1 44 -23 -12 -23 -12 -4 10 21 24
17 39 -6 19z"/>
<path d="M23 586 c-17 -8 -23 -19 -23 -43 0 -31 0 -31 31 -20 28 11 68 52 58
61 -12 11 -47 12 -66 2z"/>
<path d="M178 542 c-25 -5 -23 -22 2 -22 11 0 20 -4 20 -9 0 -5 11 -4 25 2 14
7 23 16 22 21 -3 10 -40 14 -69 8z"/>
<path d="M288 523 c6 -2 9 -10 5 -16 -4 -7 0 -8 11 -4 10 4 20 7 22 7 3 0 2 5
-1 10 -3 6 -16 10 -28 9 -12 0 -16 -3 -9 -6z"/>
<path d="M6 501 c-6 -10 43 -25 52 -16 3 3 -2 5 -11 5 -9 0 -17 5 -17 10 0 12
-17 13 -24 1z"/>
<path d="M425 500 c3 -5 10 -10 16 -10 5 0 9 5 9 10 0 6 -7 10 -16 10 -8 0
-12 -4 -9 -10z"/>
<path d="M260 490 c0 -5 5 -10 10 -10 6 0 10 5 10 10 0 6 -4 10 -10 10 -5 0
-10 -4 -10 -10z"/>
<path d="M340 480 c0 -5 5 -10 11 -10 5 0 7 5 4 10 -3 6 -8 10 -11 10 -2 0 -4
-4 -4 -10z"/>
<path d="M383 482 c-8 -5 -8 -12 3 -26 12 -17 16 -14 13 10 0 4 5 11 13 15 10
7 10 9 -2 9 -8 0 -20 -4 -27 -8z"/>
<path d="M512 460 c0 -14 2 -19 5 -12 2 6 2 18 0 25 -3 6 -5 1 -5 -13z"/>
<path d="M0 449 c0 -5 5 -7 10 -4 5 3 10 8 10 11 0 2 -4 4 -10 4 -5 0 -10 -5
-10 -11z"/>
<path d="M445 430 c-3 -5 -1 -10 4 -10 6 0 11 5 11 10 0 6 -2 10 -4 10 -3 0
-8 -4 -11 -10z"/>
<path d="M700 426 c0 -9 7 -12 21 -9 16 4 17 8 7 14 -19 13 -28 11 -28 -5z"/>
<path d="M677 236 c-7 -19 11 -32 24 -19 6 6 5 14 -4 22 -12 9 -16 8 -20 -3z"/>
</g>
</svg>
